<svg version="1.1" id="Layer_1" xmlns="http://www.w3.org/2000/svg" x="0" y="0" viewBox="0 0 595.28 841.89" style="enable-background:new 0 0 595.28 841.89" xml:space="preserve"><style>.st0{fill:#79992f}</style><path class="st0" d="M308.24 444.9c2.68-3.61.84-7.23.91-7.21-.03.07-3.99 2.03-6.89 4.83-2.92 2.89-3.37 6.62-3.29 6.67-.01-.02 1.58-.07 3.58-.67 1.99-.61 4.33-1.84 5.69-3.62z"/><path class="st0" d="M312.54 455.28c2.56-.54 4.36-1.41 4.35-1.4.04-.07-2.09-3.12-6.99-4.01-2.44-.47-5.14-.52-7.26-.6-2.12-.08-3.68-.11-3.68-.09.06-.08.13 4.05 5.19 5.89 2.55.9 5.85.77 8.39.21zm6.89-16.6c1.07-4.08-1.73-6.6-1.66-6.61-.01.06-2.91 3.26-4.4 6.78-1.48 3.58-.41 6.92-.34 6.93-.01.12 5.35-2.89 6.4-7.1z"/><path class="st0" d="M319.63 448.9c2.48-.16 5.2-1.43 7.17-2.77 1.97-1.33 3.21-2.66 3.21-2.65 0-.07-2.88-2.04-7.38-1.09-4.44 1-9.54 3.44-9.61 3.4.02-.08 1.66 3.37 6.61 3.11zm6.05-13.72c.86-1.58 1.61-3.74 1.48-5.69-.34-3.92-3.51-5.29-3.47-5.31.02.05-1.62 3.86-1.78 7.46-.14 3.65 1.94 6.15 2 6.14-.03-.01.9-1.02 1.77-2.6z"/><path class="st0" d="M337.87 430.44c-.01-.05-3.14-.94-6.76 1.27-3.57 2.22-7.15 6.07-7.21 6.06-.01-.07 2.57 2.32 6.73.51 4.27-1.81 7.34-7.85 7.24-7.84zm-10.65-7.92c.94 3.27 3.51 4.81 3.55 4.78.04.06 1.87-4.8.44-8.22-1.38-3.36-4.55-3.72-4.52-3.75.06.05-.38 3.96.53 7.19z"/><path class="st0" d="M340.9 416.97c-.03-.04-3.02.01-5.58 2.95-2.51 2.93-4.48 7.37-4.54 7.38-.03-.05 2.94 1.23 6.02-1.53 3.16-2.79 4.19-8.82 4.1-8.8zm-7.11-.82c.08.04.34-4.68-1.75-7.35-2.05-2.63-4.91-2.19-4.9-2.23.04.02.62 3.66 2.27 6.31 1.67 2.68 4.36 3.3 4.38 3.27z"/><path class="st0" d="M340.05 404.58c-.02-.03-2.67.73-4.2 3.94-1.49 3.19-1.98 7.61-2.06 7.63-.02-.03 2.89.26 4.86-2.92 2.03-3.22 1.46-8.69 1.4-8.65zm-6.45 1.01c.04.02-.82-4.17-3.27-6.04-2.41-1.85-4.83-.83-4.82-.86.05 0 1.4 3.12 3.46 5.07 2.11 1.96 4.61 1.85 4.63 1.83z"/><path class="st0" d="M337.15 401.88c1.02-3.28-.68-7.9-.74-7.84-.02-.02-2.19 1.23-2.8 4.39-.59 3.13.01 7.13-.01 7.16-.04-.02 2.58-.47 3.55-3.71zm-6.2-5.55c.01.04.44-3.59-1.76-6.94-2.21-3.35-5.73-4.37-5.68-4.35.01.04.86 3.32 2.78 6.27 1.94 2.93 4.64 5 4.66 5.02zm-8.9 13.94c0-13.28-10.77-24.05-24.05-24.05s-24.04 10.77-24.04 24.05c0 13.28 10.76 24.05 24.04 24.05s24.05-10.77 24.05-24.05zm-30.21 44.81c5.06-1.85 5.13-5.97 5.19-5.89 0-.02-1.56.01-3.68.09-2.13.08-4.82.13-7.26.6-4.9.88-7.02 3.94-6.99 4.01 0-.01 1.8.86 4.35 1.4 2.55.55 5.85.68 8.39-.21z"/><path class="st0" d="M293.45 448.51c2 .6 3.59.66 3.58.67.07-.05-.37-3.77-3.3-6.67-2.89-2.81-6.86-4.77-6.89-4.83.07-.02-1.77 3.6.91 7.21 1.37 1.79 3.71 3.02 5.7 3.62zm-17.09.38c4.96.27 6.59-3.19 6.61-3.11-.06.04-5.17-2.4-9.61-3.4-4.51-.94-7.39 1.02-7.38 1.09 0-.01 1.24 1.32 3.21 2.65 1.97 1.34 4.7 2.61 7.17 2.77z"/><path class="st0" d="M282.98 445.78c.07-.01 1.14-3.35-.34-6.93-1.49-3.51-4.39-6.72-4.4-6.78.06.01-2.73 2.53-1.66 6.61 1.04 4.21 6.4 7.21 6.4 7.1zm-10.87-8.01c-.06.01-3.64-3.84-7.21-6.06-3.62-2.21-6.76-1.32-6.76-1.27-.1-.01 2.96 6.03 7.24 7.84 4.15 1.82 6.74-.57 6.73-.51z"/><path class="st0" d="M274.11 431.63c-.17-3.6-1.8-7.41-1.78-7.46.04.03-3.14 1.4-3.47 5.31-.13 1.95.61 4.11 1.48 5.69.87 1.59 1.8 2.59 1.78 2.6.05.01 2.12-2.49 1.99-6.14zm-8.88-4.32c-.06-.01-2.03-4.45-4.54-7.38-2.57-2.94-5.56-2.99-5.58-2.95-.1-.03.94 6 4.1 8.8 3.08 2.76 6.04 1.48 6.02 1.53z"/><path class="st0" d="M264.79 419.09c-1.43 3.42.39 8.28.44 8.22.05.02 2.62-1.51 3.55-4.78.91-3.24.47-7.14.52-7.19.04.03-3.14.39-4.51 3.75zm-2.58-2.94c-.07-.02-.57-4.44-2.06-7.63-1.53-3.21-4.19-3.97-4.2-3.94-.06-.04-.62 5.43 1.4 8.65 1.97 3.19 4.88 2.9 4.86 2.92z"/><path class="st0" d="M266.59 412.9c1.65-2.65 2.23-6.29 2.27-6.31.01.03-2.85-.4-4.9 2.23-2.1 2.66-1.84 7.39-1.76 7.35.03.01 2.72-.61 4.39-3.27zm-4.19-7.31c-.02-.03.57-4.03-.01-7.16-.61-3.16-2.78-4.41-2.8-4.39-.06-.06-1.76 4.57-.74 7.84.97 3.24 3.59 3.69 3.55 3.71z"/><path class="st0" d="M270.49 398.69c0 .03-2.42-.99-4.82.86-2.45 1.86-3.3 6.05-3.27 6.04.02.03 2.52.13 4.62-1.82 2.07-1.96 3.42-5.08 3.47-5.08zm-.77-7.38c1.92-2.95 2.77-6.23 2.78-6.27.05-.02-3.48 1.01-5.68 4.35-2.2 3.35-1.77 6.98-1.76 6.94.01-.02 2.71-2.09 4.66-5.02z"/><path d="M297.57 419.55c-2.23 0-3.38-1.52-3.44-4.58l-5.01.41c.42 5.52 3.42 8.28 8.99 8.28 2.55 0 4.66-.69 6.32-2.07 1.66-1.38 2.49-3.3 2.49-5.76 0-3.09-1.61-5.16-4.83-6.21 2.59-1.18 3.89-3.15 3.89-5.91 0-2.12-.71-3.79-2.12-5.01-1.42-1.22-3.4-1.83-5.96-1.83-2.27 0-4.14.62-5.62 1.87-1.48 1.25-2.27 3.05-2.37 5.4l4.86.38c0-2.29.92-3.44 2.77-3.44.83 0 1.5.27 2.01.81.51.54.77 1.24.77 2.09 0 .96-.34 1.77-1.01 2.44-.67.67-1.75 1-3.23 1v4.38c.47-.03.86-.04 1.16-.04 1.25 0 2.18.37 2.81 1.11.62.74.93 1.67.93 2.78 0 1.14-.32 2.07-.95 2.81-.63.73-1.45 1.09-2.46 1.09z" style="fill:#79992f"/></svg>