<svg id="Capa_1" enable-background="new 0 0 512.082 512.082" height="512" viewBox="0 0 512.082 512.082" width="512" xmlns="http://www.w3.org/2000/svg"><g><path d="m90.005 135.541c28.948 0 52.5-23.552 52.5-52.5s-23.552-52.5-52.5-52.5-52.5 23.552-52.5 52.5 23.552 52.5 52.5 52.5zm0-90c20.678 0 37.5 16.822 37.5 37.5s-16.822 37.5-37.5 37.5-37.5-16.822-37.5-37.5 16.822-37.5 37.5-37.5z"/><path d="m474.582 150.541h-105.667c-20.678 0-37.5 16.822-37.5 37.5v60.5h-150.748v-60.5c0-20.678-16.822-37.5-37.5-37.5h-105.666c-20.678 0-37.5 16.822-37.5 37.5 0 4.143 3.357 7.5 7.5 7.5s7.5-3.357 7.5-7.5c0-12.406 10.094-22.5 22.5-22.5h105.667c12.406 0 22.5 10.094 22.5 22.5l-.001 121.5c0 3.99-3.225 7-7.5 7s-7.5-3.01-7.5-7c0-.011-.001-121-.001-121 0-4.143-3.357-7.5-7.5-7.5s-7.5 3.357-7.5 7.5v37.5h-90.666v-37.5c0-4.143-3.358-7.5-7.5-7.5-4.143 0-7.5 3.357-7.5 7.5v120.491c0 4.144-3.365 7.509-7.5 7.509s-7.5-3.364-7.5-7.5l.001-91c0-4.142-3.357-7.5-7.5-7.5-4.142 0-7.5 3.358-7.5 7.5l-.001 91c0 12.406 10.094 22.5 22.5 22.5 2.629 0 5.153-.458 7.5-1.29v125.374c0 14.29 11.851 25.916 26.416 25.916 14.566 0 26.417-11.851 26.417-26.416l-.001-138.584h15l.001 138.584c0 14.565 11.851 26.416 26.416 26.416 14.566 0 26.417-11.626 26.417-25.916v-125.297c2.337.784 4.858 1.213 7.5 1.213 12.617 0 22.5-9.663 22.5-22v-46h150.747v45.5c0 12.406 10.094 22.5 22.5 22.5 2.629 0 5.153-.458 7.5-1.29v125.374c0 14.29 11.851 25.916 26.417 25.916 14.565 0 26.416-11.851 26.416-26.416l-.001-138.584h15l.001 138.584c0 14.565 11.851 26.416 26.417 26.416 14.565 0 26.416-11.626 26.416-25.916v-125.297c2.337.784 4.858 1.213 7.5 1.213 12.617 0 22.5-9.663 22.5-22l.001-121.5c.002-20.678-16.82-37.5-37.498-37.5zm-338.916 120.5h-45.666c-8.271 0-15-6.729-15-15s6.729-15 15-15h45.666zm-71.63-30c-2.561 4.416-4.036 9.538-4.036 15s1.475 10.584 4.036 15h-19.036v-30zm60.214 225.5c-6.295 0-11.416-5.121-11.416-11.416l-.001-146.084c0-4.143-3.357-7.5-7.5-7.5h-30c-1.989 0-3.896.79-5.304 2.196-1.406 1.407-2.196 3.314-2.196 5.304l.001 146.084c0 6.295-5.122 11.416-11.417 11.416-6.188 0-11.416-4.999-11.416-10.916l-.001-169.584h90.666v169.584c.001 5.917-5.228 10.916-11.416 10.916zm342.83-225.5v30h-45.665c-8.271 0-15-6.729-15-15s6.729-15 15-15zm-71.629 30h-19.037v-30h19.037c-2.562 4.416-4.036 9.538-4.036 15s1.475 10.584 4.036 15zm60.214 195.5c-6.295 0-11.417-5.121-11.417-11.416l-.001-146.084c0-4.143-3.357-7.5-7.5-7.5h-30c-1.989 0-3.896.79-5.304 2.196-1.406 1.407-2.196 3.314-2.196 5.304l.001 146.084c0 6.295-5.121 11.416-11.416 11.416-6.188 0-11.417-4.999-11.417-10.916v-169.584h90.666v169.584c0 5.917-5.227 10.916-11.416 10.916zm41.416-157c0 3.99-3.225 7-7.5 7s-7.5-3.01-7.5-7c0-.011-.001-121-.001-121 0-4.143-3.357-7.5-7.5-7.5s-7.5 3.357-7.5 7.5v37.5h-90.666v-37.5c0-4.143-3.358-7.5-7.5-7.5-4.143 0-7.5 3.357-7.5 7.5v120.491c0 4.144-3.365 7.509-7.5 7.509s-7.5-3.364-7.5-7.5l.001-121c0-12.406 10.094-22.5 22.5-22.5h105.667c12.406 0 22.5 10.094 22.5 22.5z"/><path d="m421.42 135.541c28.948 0 52.5-23.552 52.5-52.5s-23.552-52.5-52.5-52.5-52.5 23.552-52.5 52.5 23.552 52.5 52.5 52.5zm0-90c20.678 0 37.5 16.822 37.5 37.5s-16.822 37.5-37.5 37.5-37.5-16.822-37.5-37.5 16.822-37.5 37.5-37.5z"/></g></svg>