<?xml version="1.0" encoding="UTF-8" standalone="no"?>
<!-- Created with Inkscape (http://www.inkscape.org/) -->

<svg
   version="1.1"
   id="svg2376"
   xml:space="preserve"
   width="682.66669"
   height="682.66669"
   viewBox="0 0 682.66669 682.66669"
   xmlns="http://www.w3.org/2000/svg"
   xmlns:svg="http://www.w3.org/2000/svg"><defs
     id="defs2380"><clipPath
       clipPathUnits="userSpaceOnUse"
       id="clipPath2390"><path
         d="M 0,512 H 512 V 0 H 0 Z"
         id="path2388" /></clipPath></defs><g
     id="g2382"
     transform="matrix(1.3333333,0,0,-1.3333333,0,682.66667)"><g
       id="g2384"><g
         id="g2386"
         clip-path="url(#clipPath2390)"><g
           id="g2392"
           transform="translate(67.5,211)"><path
             d="m 0,0 h 143.5 v -188.5 c 0,-8.284 6.716,-15 15,-15 h 60 c 8.284,0 15,6.716 15,15 V 0 H 422 c 8.284,0 15,6.716 15,15 v 60 c 0,8.284 -6.716,15 -15,15 H 233.5 v 188.5 c 0,8.284 -6.716,15 -15,15 h -60 c -8.284,0 -15,-6.716 -15,-15 V 90 H -45 c -8.284,0 -15,-6.716 -15,-15 V 15 c 0,-8.284 6.716,-15 15,-15 h 15"
             style="fill:none;stroke:#000000;stroke-width:15;stroke-linecap:round;stroke-linejoin:round;stroke-miterlimit:10;stroke-dasharray:none;stroke-opacity:1"
             id="path2394" /></g></g></g></g></svg>
