<?xml version="1.0" encoding="UTF-8"?>
<svg id="Layer_1" data-name="Layer 1" xmlns="http://www.w3.org/2000/svg" viewBox="0 0 510.98 365.91">
  <defs>
    <style>
      .cls-1 {
        fill: #79992f;
        stroke-width: 0px;
      }
    </style>
  </defs>
  <path class="cls-1" d="m220.54,334.31c-20.57-5.96-40.41-15.79-57.45-28.35-11.51-8.48-22.07-18.34-31.46-29.45-8.87-10.5-16.95-22.63-23.2-34.9-3.39-6.65-6.37-13.52-8.91-20.55-5.22-14.4-8.59-29.45-10.07-44.69-2.92-29.93,1.61-60.25,13.08-87.83,1.2-.23,1.6-.31,2.08-.45,5.54-1.65,10.83-4.42,15.29-8.01,11.73-9.44,18.27-23,18.41-38.18.12-13.56-5.01-27.82-14.07-39.1-1.99-2.48-5.33-3.43-8.33-2.37-13.66,4.81-25.53,14.21-32.58,25.8-7.89,12.97-9.49,27.94-4.5,42.15,1.89,5.4,4.92,10.54,8.76,14.87.19.21.37.4.66.67-2.4,5.87-4.5,11.85-6.32,17.92-5.47-8.39-13.4-14.87-23.17-18.76-12.6-5.02-27.74-5.39-41.54-1.03-3.03.96-5.13,3.73-5.23,6.91-.46,14.47,4.01,28.94,12.26,39.71,9.23,12.05,22.61,18.96,37.66,19.45.46,0,.93.02,1.39.02,3.56,0,7.16-.45,10.66-1.3-.49,8.21-.47,16.47.07,24.71-9.51-7.47-21.23-11.08-33.73-10.25-13.54.9-27.36,7.09-37.93,16.98-2.32,2.18-3.02,5.58-1.74,8.49,5.82,13.26,16.09,24.39,28.18,30.55,7.23,3.68,14.89,5.53,22.57,5.53,6.69,0,13.38-1.4,19.8-4.22,3.52-1.54,6.87-3.59,9.92-6.02,2.71,9.6,6.13,18.95,10.24,27.99-8.84-2.15-18.15-1.77-27.25,1.26-12.88,4.27-24.71,13.73-32.46,25.95-1.7,2.69-1.52,6.16.44,8.65,8.96,11.37,21.7,19.57,34.94,22.5,3.72.82,7.44,1.23,11.1,1.23,10.92,0,21.38-3.62,30.24-10.59,2.97-2.33,5.66-5.1,7.97-8.16,1.27,1.6,2.56,3.19,3.88,4.76,4.89,5.79,10.07,11.26,15.52,16.4-8.13,1.36-15.86,4.8-22.67,10.23-10.61,8.45-18.45,21.41-21.5,35.56-.67,3.11.69,6.3,3.4,7.97,10.11,6.21,21.86,9.55,33.17,9.55,2.49,0,4.96-.16,7.39-.49,15.04-2.04,27.68-10.23,35.57-23.05,2-3.24,3.58-6.8,4.69-10.5,12.79,7.07,26.4,12.74,40.62,16.87.7.2,1.4.3,2.09.3,3.25,0,6.24-2.13,7.19-5.41,1.15-3.98-1.13-8.14-5.11-9.29l-.02-.03ZM91.16,49.71c.32-4.33,1.43-8.59,3.24-12.53,4.26-9.28,12.19-16.29,21.36-20.55,13.27,20.25,7.67,41.36-5.28,51.77-3.2,2.57-8.44,6.63-12.43,4.09-6.61-4.2-7.4-15.88-6.9-22.79h.01Zm-17.92,145.24c-.06.77-.21,1.51-.44,2.21-1.15,3.59-4.29,6.25-7.68,7.73-15.22,6.67-36.53,1.88-48.35-19.24-.66-1.18,12.74-6.79,14.1-7.21,5.5-1.72,11.35-2.48,17.1-1.96,5.62.51,11.15,2.27,15.79,5.53,4,2.81,9.9,7.61,9.48,12.94h0Zm-4.23-62.37c-2.11.55-4.47.62-6.64.54-16.61-.54-33.78-14.04-35.34-38.2,23.68-5.05,41.33,7.82,46.36,23.65,1.96,6.17,2.97,12.1-4.37,14h0Zm36.95,136.66c-.54,3.42-4.37,6.57-6.9,8.57-13.06,10.28-34.89,11-51.64-6.48,6.31-8.1,15.09-14.32,25.27-16.29,8.77-1.7,30.64,1.19,33.21,12.33.15.63.16,1.26.06,1.88h0Zm52.32,65.25c-8.71,14.15-28.95,22.36-50.7,11.73,3.49-10.94,10.9-20.4,21.43-25.28,7.16-3.32,23.29-7.17,30.22-1.49,1.68,1.38,2.47,2.94,2.69,4.58.46,3.48-1.7,7.31-3.64,10.46h0Z"/>
  <path class="cls-1" d="m508.6,178.27c-10.57-9.89-24.4-16.08-37.93-16.98-12.51-.83-24.23,2.78-33.74,10.24.54-8.24.56-16.5.07-24.71,3.5.85,7.1,1.3,10.66,1.3.47,0,.93,0,1.4-.02,15.05-.49,28.43-7.4,37.66-19.45,8.25-10.77,12.72-25.24,12.26-39.71-.1-3.18-2.2-5.95-5.23-6.9-13.8-4.37-28.94-4-41.54,1.03-9.77,3.89-17.7,10.37-23.17,18.76-1.81-6.07-3.92-12.05-6.32-17.91.29-.27.47-.46.66-.67,3.84-4.33,6.87-9.47,8.76-14.87,4.99-14.21,3.39-29.18-4.5-42.15-7.05-11.59-18.93-20.99-32.58-25.8-3-1.06-6.34-.11-8.33,2.38-9.07,11.28-14.19,25.54-14.07,39.1.13,15.18,6.67,28.74,18.41,38.18,4.46,3.59,9.74,6.36,15.28,8.01.48.14.88.22,2.08.44,11.46,27.58,16,57.9,13.08,87.83-2.82,28.88-12.27,56.24-27.61,80.33-4.31,6.77-9.29,13.56-14.58,19.81-6.55,7.76-13.74,14.98-21.48,21.55-6.11,5.19-12.19,10.15-19.06,14.25-6.78,4.04-13.71,8.17-20.84,11.56-8.87,4.21-18.09,7.71-27.52,10.45-3.98,1.15-6.27,5.31-5.11,9.29.95,3.28,3.95,5.41,7.19,5.41.69,0,1.4-.1,2.09-.3,14.23-4.13,27.83-9.79,40.62-16.87,1.12,3.7,2.7,7.26,4.69,10.5,4.57,7.43,10.63,13.26,17.99,17.32,3.63,2,8.18.68,10.18-2.95s.67-8.18-2.95-10.18c-5.06-2.79-9.26-6.85-12.46-12.05-3.64-5.91-4.81-12.48,2.65-15.41,20.89-8.19,41.75,7.42,48.04,27.11-3.31,1.57-6.76,2.76-10.31,3.57-4.04.91-6.57,4.93-5.65,8.96.79,3.48,3.88,5.84,7.3,5.84.55,0,1.11-.06,1.66-.19,6.93-1.57,13.55-4.27,19.67-8.04,2.71-1.66,4.07-4.86,3.4-7.96-3.05-14.15-10.89-27.11-21.5-35.56-6.81-5.43-14.54-8.87-22.67-10.23,5.45-5.14,10.63-10.61,15.52-16.39,1.33-1.57,2.62-3.16,3.89-4.76,2.31,3.06,5.01,5.82,7.97,8.16,8.86,6.97,19.32,10.59,30.24,10.59,3.66,0,7.38-.41,11.1-1.23,13.24-2.93,25.98-11.13,34.94-22.5,1.97-2.5,2.14-5.97.44-8.65-7.75-12.23-19.58-21.68-32.46-25.95-9.1-3.02-18.41-3.4-27.25-1.26,4.11-9.04,7.54-18.39,10.24-27.99,3.05,2.43,6.41,4.48,9.92,6.02,6.42,2.81,13.11,4.21,19.8,4.21,7.67,0,15.34-1.85,22.57-5.53,12.09-6.16,22.36-17.29,28.18-30.55,1.27-2.91.58-6.31-1.74-8.48h-.01Zm-89.39-119.29c-.96,4.76-2.05,12.76-8.09,13.67-4.21.63-7.54-1.73-10.67-4.24-12.94-10.42-18.55-31.53-5.27-51.77,1.11-1.69,14.59,10.38,15.76,11.77,3.67,4.35,6.39,9.48,7.81,15,1.3,5.08,1.5,10.44.47,15.58h-.01Zm44.31,212.34c-16.75,17.48-38.58,16.76-51.64,6.48-2.91-2.29-5.45-5.22-7.35-8.5-.1-.21-.24-.53-.39-.89.64-.96,1.27-1.93,1.89-2.89,1.96-2.32,4.27-4.34,6.78-5.93,14.04-8.88,35.83-7.37,50.7,11.73h.01Zm-25.97-152.74c5.03-15.84,22.67-28.7,46.36-23.65-1.56,24.16-18.74,37.66-35.34,38.2-4.01.14-10.46.18-12.19-4.25-1.24-3.16.22-7.25,1.18-10.3h-.01Zm8.26,86.32c-3.33-1.46-7.36-3.22-8.96-6.73-3.49-7.63,8.16-14.48,13.13-17.31,4.05-2.32,8.57-3.8,13.19-4.39,11.15-1.44,22.19,2.43,30.99,9.19-11.83,21.13-33.14,25.91-48.36,19.24h0Z"/>
</svg>