<?xml version="1.0" encoding="iso-8859-1"?>
<!-- Generator: Adobe Illustrator 19.0.0, SVG Export Plug-In . SVG Version: 6.00 Build 0)  -->
<svg version="1.1" id="Capa_1" xmlns="http://www.w3.org/2000/svg" xmlns:xlink="http://www.w3.org/1999/xlink" x="0px" y="0px"
	 viewBox="0 0 512 512" style="enable-background:new 0 0 512 512;" xml:space="preserve">
<g>
	<g>
		<path d="M468.176,165.339c-3.013-1.744-6.832-1.185-9.218,1.351L337.903,295.311l-75.266-143.006
			c-1.297-2.464-3.852-4.007-6.637-4.007c-2.785,0-5.34,1.543-6.637,4.007l-75.266,143.006L53.042,166.69
			c-2.387-2.535-6.205-3.096-9.218-1.351c-3.014,1.744-4.431,5.333-3.421,8.667l78.437,258.841
			c1.997,6.589,7.965,11.016,14.85,11.016h244.622c6.885,0,12.853-4.427,14.85-11.017l78.437-258.84
			C472.607,170.673,471.19,167.083,468.176,165.339z M388.411,396.798h-20.189c-4.142,0-7.5,3.358-7.5,7.5
			c0,4.142,3.358,7.5,7.5,7.5h15.643l-5.06,16.698c-0.066,0.219-0.265,0.367-0.494,0.367H133.689c-0.229,0-0.428-0.147-0.494-0.366
			l-5.06-16.698h208.03c4.142,0,7.5-3.358,7.5-7.5c0-4.142-3.358-7.5-7.5-7.5H123.589L64.029,200.25l106.348,112.995
			c1.661,1.765,4.071,2.617,6.473,2.292c2.401-0.327,4.497-1.794,5.625-3.938L256,171.901l73.524,139.697
			c1.128,2.145,3.224,3.611,5.625,3.938c2.403,0.326,4.813-0.527,6.473-2.292L447.971,200.25L388.411,396.798z"/>
	</g>
</g>
<g>
	<g>
		<path d="M23.532,108.218C10.557,108.218,0,118.774,0,131.75s10.557,23.532,23.532,23.532c12.975,0,23.532-10.556,23.532-23.532
			S36.507,108.218,23.532,108.218z M23.532,140.282c-4.705,0-8.532-3.828-8.532-8.532c0-4.704,3.828-8.532,8.532-8.532
			c4.704,0,8.532,3.828,8.532,8.532C32.064,136.454,28.237,140.282,23.532,140.282z"/>
	</g>
</g>
<g>
	<g>
		<path d="M488.468,108.218c-12.976,0-23.532,10.557-23.532,23.532s10.557,23.532,23.532,23.532
			c12.975,0,23.532-10.556,23.532-23.532S501.443,108.218,488.468,108.218z M488.468,140.282c-4.705,0-8.532-3.828-8.532-8.532
			c0-4.704,3.828-8.532,8.532-8.532c4.704,0,8.532,3.827,8.532,8.532C497,136.455,493.172,140.282,488.468,140.282z"/>
	</g>
</g>
<g>
	<g>
		<path d="M256,68.137c-15.187,0-27.541,12.354-27.541,27.54c0,15.186,12.355,27.541,27.541,27.541
			c15.186,0,27.541-12.354,27.541-27.541C283.541,80.491,271.187,68.137,256,68.137z M256,108.218
			c-6.916,0-12.541-5.625-12.541-12.541c0-6.914,5.626-12.54,12.541-12.54c6.915,0,12.541,5.625,12.541,12.54
			S262.916,108.218,256,108.218z"/>
	</g>
</g>
<g>
</g>
<g>
</g>
<g>
</g>
<g>
</g>
<g>
</g>
<g>
</g>
<g>
</g>
<g>
</g>
<g>
</g>
<g>
</g>
<g>
</g>
<g>
</g>
<g>
</g>
<g>
</g>
<g>
</g>
</svg>
