<?xml version="1.0" encoding="UTF-8"?>
<svg id="Layer_1" data-name="Layer 1" xmlns="http://www.w3.org/2000/svg" viewBox="0 0 519.01 427.76">
  <defs>
    <style>
      .cls-1 {
        stroke: #231f20;
      }

      .cls-1, .cls-2 {
        fill: none;
        stroke-miterlimit: 10;
        stroke-width: 7px;
      }

      .cls-2 {
        stroke: #79992f;
      }
    </style>
  </defs>
  <circle class="cls-1" cx="110.98" cy="126.48" r="25.27"/>
  <path class="cls-2" d="m10.13,101.61c1.09,1.5,3.21,1.82,4.71.73l1.21-.88c1.5-1.09,1.82-3.21.73-4.71l-.77-1.06,6.19-4.54,58.4,79.42v64.35l-9.58,117.49c-.62,7.65,5.07,14.35,12.71,14.97s14.35-5.07,14.97-12.71l8.35-102.32h7.87l8.35,102.32c.62,7.65,7.33,13.34,14.97,12.71s13.34-7.32,12.71-14.97l-9.58-117.49v-64.35l40.03-54.43-11.16-15.17-42.06,57.19h-34.39l-57.08-77.62,5.74-4.2.77,1.06c1.09,1.5,3.21,1.82,4.71.73l1.21-.88c1.5-1.09,1.82-3.21.73-4.71l-5.97-8.16c-1.09-1.5-3.21-1.82-4.71-.73l-1.21.88c-1.5,1.09-1.82,3.21-.73,4.71l.77,1.06-7.59,5.56c-2.42-.52-5.04-.04-7.2,1.54-2.14,1.57-3.37,3.92-3.61,6.37l-8.04,5.89-.78-1.06c-1.09-1.5-3.21-1.82-4.71-.73l-1.21.88c-1.5,1.09-1.82,3.21-.73,4.71l5.97,8.16h.01Z"/>
  <circle class="cls-1" cx="408.04" cy="126.48" r="25.27"/>
  <path class="cls-2" d="m377.66,170.57v64.35l-9.58,117.49c-.62,7.65,5.07,14.35,12.71,14.97,7.64.62,14.35-5.07,14.97-12.71l8.35-102.32h7.87l8.35,102.32c.62,7.65,7.33,13.34,14.97,12.71s13.34-7.32,12.71-14.97l-9.58-117.49v-64.35l58.4-79.41,6.19,4.54-.77,1.06c-1.09,1.5-.77,3.61.73,4.71l1.21.88c1.5,1.09,3.61.77,4.71-.73l5.97-8.16c1.09-1.5.77-3.61-.73-4.71l-1.21-.88c-1.5-1.09-3.61-.77-4.71.73l-.77,1.06-8.04-5.89c-.24-2.45-1.47-4.8-3.61-6.37-2.15-1.58-4.77-2.06-7.2-1.54l-7.59-5.56.77-1.06c1.09-1.5.77-3.61-.73-4.71l-1.21-.88c-1.5-1.09-3.61-.77-4.71.73l-5.97,8.16c-1.09,1.5-.77,3.61.73,4.71l1.21.88c1.5,1.09,3.61.77,4.71-.73l.77-1.06,5.74,4.2-57.08,77.62h-34.39l-42.06-57.19-11.16,15.17,40.03,54.43h0Z"/>
  <circle class="cls-1" cx="259.51" cy="91.24" r="34.93"/>
  <path class="cls-1" d="m217.52,152.17v88.94l-13.24,162.39c-.86,10.57,7.01,19.83,17.57,20.69,10.57.86,19.83-7,20.69-17.57l11.53-141.42h10.87l11.53,141.42c.86,10.57,10.13,18.43,20.69,17.57s18.43-10.12,17.57-20.69l-13.24-162.39v-88.94l80.71-109.76,8.56,6.27-1.07,1.46c-1.51,2.07-1.06,5,1.01,6.51l1.67,1.22c2.07,1.51,5,1.06,6.51-1.01l8.25-11.27c1.51-2.07,1.06-5-1.01-6.51l-1.67-1.22c-2.07-1.51-5-1.06-6.51,1.01l-1.07,1.46-11.11-8.13c-.33-3.39-2.03-6.63-4.99-8.8-2.97-2.19-6.6-2.84-9.95-2.13l-10.49-7.68,1.07-1.46c1.51-2.07,1.06-5-1.01-6.51l-1.67-1.22c-2.07-1.51-5-1.06-6.51,1.01l-8.25,11.27c-1.51,2.07-1.06,5,1.01,6.51l1.67,1.22c2.07,1.51,5,1.06,6.51-1.01l1.07-1.46,7.93,5.81-78.89,107.28h-47.54L156.85,27.74l7.93-5.81,1.07,1.46c1.51,2.07,4.44,2.52,6.51,1.01l1.67-1.22c2.07-1.51,2.52-4.44,1.01-6.51l-8.25-11.27c-1.51-2.07-4.44-2.52-6.51-1.01l-1.67,1.22c-2.07,1.51-2.52,4.44-1.01,6.51l1.07,1.46-10.49,7.68c-3.35-.71-6.97-.06-9.95,2.13-2.96,2.18-4.66,5.42-4.99,8.8l-11.11,8.14-1.07-1.46c-1.51-2.07-4.44-2.52-6.51-1.01l-1.67,1.22c-2.07,1.51-2.52,4.44-1.01,6.51l8.25,11.27c1.51,2.07,4.44,2.52,6.51,1.01l1.67-1.22c2.07-1.51,2.52-4.44,1.01-6.51l-1.07-1.46,8.56-6.27,80.71,109.76h0Z"/>
</svg>