<?xml version="1.0" encoding="UTF-8"?>
<svg id="Capa_1" data-name="Capa 1" xmlns="http://www.w3.org/2000/svg" viewBox="0 0 512 429.47">
  <defs>
    <style>
      .cls-1, .cls-2 {
        stroke-width: 0px;
      }
	  .cls-1 {
		fill: #000000
	  }
      .cls-2 {
        fill: #79992f;
      }
    </style>
  </defs>
  <path class="cls-2" d="m499.64,166.35c-3.72-2.26-8.39-1.82-11.61,1.09-8.54,7.69-17.2,14.77-26.16,21.4,1.97-6.46,3.67-12.82,5.11-19.03,15.1-8.63,27.19-22.76,35.1-41.08,7.27-16.86,10.74-36.82,9.76-56.2-.22-4.35-3.22-7.96-7.46-8.98-4.25-1.02-8.57.84-10.76,4.63-5.8,10.08-11.93,19.6-18.5,28.76-.04-7.93-.39-15.62-1.03-23.01,0-.15,0-.29-.01-.44-1.72-22.85-5.93-45.76-12.52-68.09-1.17-3.98-5.36-6.25-9.33-5.08-3.98,1.17-6.25,5.35-5.08,9.33,4.2,14.21,7.36,28.67,9.5,43.18-8.21-7.94-16.69-15.35-25.59-22.39-3.32-2.62-7.91-2.81-11.44-.48-3.53,2.33-5.15,6.63-4.04,10.7,9.01,33.11,24.07,61.35,43.62,81.96-.48,6.31-1.23,12.81-2.22,19.47-5.46-9.66-11.3-18.88-17.65-27.85-2.41-3.41-6.73-4.91-10.74-3.73-4,1.18-6.81,4.77-6.99,8.94-.98,23.34,1.33,57.4,17.55,88.99-2.27,5.75-4.83,11.61-7.66,17.54-2.43-10.76-5.36-21.21-8.83-31.56-1.33-3.95-5.02-6.62-9.19-6.65h-.08c-4.13,0-7.82,2.6-9.19,6.49-10.76,30.37-13.88,62.09-8.93,89.77-3.87,4.88-8.05,9.77-12.51,14.66.84-11.03,1.12-21.91.81-32.87-.12-4.17-2.87-7.8-6.85-9.05-3.97-1.25-8.3.16-10.77,3.51-19.25,26.1-31.74,55.77-35.42,83.93-20.02,15.07-30.58,19.07-41.74,23.28-9.19,3.48-18.58,7.03-32.78,16.5-14.2-9.47-23.58-13.02-32.78-16.5-11.16-4.22-21.73-8.22-41.74-23.28-3.69-28.17-16.17-57.84-35.42-83.93-2.47-3.34-6.8-4.75-10.76-3.51-3.98,1.25-6.73,4.88-6.85,9.05-.3,10.95-.03,21.83.81,32.86-4.46-4.88-8.64-9.77-12.51-14.66,4.95-27.68,1.83-59.39-8.93-89.77-1.38-3.89-5.07-6.49-9.19-6.49h-.08c-4.17.03-7.86,2.71-9.19,6.65-3.48,10.35-6.4,20.8-8.83,31.56-2.83-5.93-5.39-11.78-7.66-17.54,16.21-31.59,18.53-65.65,17.54-88.99-.18-4.16-2.99-7.76-6.99-8.94-4.01-1.18-8.33.32-10.74,3.73-6.35,8.97-12.19,18.2-17.65,27.85-1-6.66-1.74-13.16-2.22-19.47,19.56-20.61,34.62-48.85,43.62-81.96,1.11-4.07-.52-8.37-4.04-10.7-3.53-2.33-8.13-2.14-11.44.48-8.91,7.04-17.38,14.45-25.59,22.39,2.14-14.52,5.3-28.97,9.5-43.18,1.18-3.98-1.1-8.16-5.08-9.33-3.97-1.18-8.16,1.1-9.33,5.08-6.59,22.33-10.8,45.23-12.52,68.09-.01.15,0,.3-.01.44-.65,7.4-.99,15.09-1.03,23.01-6.58-9.16-12.71-18.68-18.5-28.76-2.18-3.79-6.5-5.64-10.75-4.63-4.24,1.02-7.24,4.63-7.46,8.98-.98,19.38,2.48,39.34,9.76,56.2,7.91,18.32,20,32.46,35.1,41.08,1.44,6.21,3.14,12.57,5.11,19.03-8.96-6.63-17.62-13.71-26.16-21.4-3.23-2.91-7.9-3.35-11.61-1.09-3.71,2.25-5.47,6.59-4.38,10.78,8.68,33.38,33.88,69.87,71,78.17,3.17,5.5,6.63,11.05,10.37,16.63-10.47-3.71-20.8-7.93-31.19-12.75-3.94-1.83-8.52-.88-11.41,2.36-2.88,3.23-3.3,7.89-1.03,11.58,17.16,27.98,49.51,54.33,85.4,54.33,1.76,0,3.53-.07,5.31-.2,9.93,9.27,21.19,18.37,33.57,27.07,23.31,17.9,35.82,22.63,47.92,27.2,7.53,2.85,14.86,5.62,25,11.86-7.77,5.95-16.76,13.42-27.44,22.97-3.09,2.77-3.36,7.51-.59,10.61,1.48,1.66,3.54,2.5,5.6,2.5,1.78,0,3.57-.63,5.01-1.91,12.38-11.08,22.27-19.17,30.51-25.26,8.24,6.09,18.13,14.18,30.51,25.26,1.43,1.28,3.22,1.91,5.01,1.91,2.06,0,4.12-.85,5.6-2.5,2.77-3.09,2.5-7.84-.59-10.61-10.67-9.55-19.67-17.02-27.44-22.97,10.14-6.24,17.48-9.02,25-11.86,12.1-4.57,24.61-9.3,47.92-27.2,12.38-8.7,23.64-17.8,33.57-27.07,1.78.13,3.55.2,5.31.2,35.89,0,68.24-26.36,85.4-54.33,2.26-3.69,1.85-8.35-1.03-11.58-2.89-3.24-7.47-4.19-11.41-2.36-10.4,4.82-20.73,9.04-31.2,12.75,3.74-5.58,7.2-11.13,10.37-16.63,37.12-8.29,62.32-44.78,71-78.17,1.09-4.2-.66-8.53-4.37-10.78Zm-28.09-20.25c.21-1.33.41-2.65.6-3.97.11-.81.22-1.61.33-2.41.17-1.23.33-2.46.48-3.68.1-.82.19-1.64.28-2.46.14-1.19.27-2.38.38-3.57.08-.81.16-1.62.23-2.43.11-1.18.21-2.36.3-3.53.03-.43.08-.87.11-1.3,7.86-9.61,15.1-19.52,21.88-29.93-2.45,20.44-10.36,41.23-24.87,55.14.1-.62.18-1.24.28-1.86ZM15.86,92.83c6.78,10.41,14.02,20.32,21.88,29.93.03.43.08.87.11,1.3.09,1.17.19,2.35.3,3.53.07.81.15,1.62.23,2.43.12,1.18.25,2.37.38,3.57.09.82.18,1.63.28,2.46.15,1.22.31,2.45.48,3.68.11.8.21,1.6.33,2.41.19,1.32.39,2.64.6,3.97.1.62.18,1.24.28,1.86-14.51-13.91-22.42-34.7-24.87-55.14Zm59.51,44.43c-.83,18.08-4.18,35.3-9.84,50.52-.18-.55-.35-1.1-.52-1.65-.33-1.07-.66-2.13-.98-3.19-.23-.78-.46-1.56-.68-2.33-.3-1.02-.59-2.04-.87-3.06-.22-.8-.44-1.6-.65-2.39-.26-.98-.52-1.96-.77-2.93-.21-.81-.41-1.62-.61-2.43-.23-.95-.46-1.89-.68-2.83-.1-.41-.19-.82-.28-1.23,4.94-9.98,10.19-19.4,15.88-28.47Zm-23.46-42c0-.85.03-1.69.04-2.53.02-1.09.05-2.17.08-3.25.03-.85.06-1.69.1-2.53.04-1.05.09-2.09.15-3.13.04-.85.1-1.7.15-2.54.06-1.01.13-2.01.21-3,.03-.45.07-.9.11-1.35,7.75-8.34,15.65-16.06,23.88-23.32-6.39,17.78-14.73,33.6-24.72,46.87,0-.62,0-1.24,0-1.86,0-1.12,0-2.24.01-3.35Zm-22.96,96.19c9.52,7.71,19.3,14.82,29.54,21.5.16.41.33.82.5,1.23.41,1.04.83,2.08,1.26,3.12.32.77.63,1.54.96,2.32.44,1.05.9,2.1,1.35,3.15.33.77.67,1.53,1.01,2.3.49,1.09.99,2.19,1.49,3.28.34.73.67,1.46,1.01,2.2.56,1.19,1.14,2.39,1.72,3.59.26.54.51,1.08.77,1.61-17.73-8.84-31.29-25.95-39.61-44.3Zm69.66,24.08c4.41,17.3,6.17,34.64,5.15,50.88-.36-.52-.71-1.04-1.06-1.56-.58-.85-1.15-1.7-1.71-2.55-.47-.72-.94-1.43-1.4-2.15-.56-.85-1.11-1.71-1.65-2.56-.46-.72-.9-1.43-1.35-2.15-.53-.84-1.05-1.69-1.56-2.53-.43-.72-.86-1.43-1.29-2.14-.5-.84-1-1.68-1.48-2.53-.21-.36-.41-.71-.61-1.07,1.84-10.92,4.15-21.39,6.97-31.65Zm-28.73,65.1c11.34,4.57,22.74,8.51,34.45,11.91.28.36.57.71.86,1.06.69.87,1.4,1.74,2.11,2.62.53.65,1.06,1.3,1.6,1.94.74.89,1.49,1.78,2.25,2.66.54.63,1.07,1.26,1.62,1.89.8.92,1.62,1.85,2.44,2.77.53.59,1.04,1.18,1.58,1.77.9,1,1.83,2,2.75,3,.4.43.78.86,1.18,1.29-19.58-3.35-37.54-15.79-50.82-30.92Zm92.35,49.09c-.83-.67-1.66-1.33-2.48-2-.67-.55-1.32-1.1-1.98-1.65-.8-.67-1.6-1.34-2.39-2.02-.65-.55-1.28-1.1-1.91-1.65-.78-.68-1.55-1.36-2.32-2.04-.62-.55-1.23-1.1-1.84-1.66-.75-.68-1.5-1.37-2.24-2.06-.31-.28-.61-.57-.91-.85-1.48-11.04-2.37-21.78-2.69-32.47,9.37,15.38,16.27,31.6,20.24,47.58-.5-.39-.99-.79-1.48-1.18Zm203.61-13.92c-.3.29-.6.57-.91.85-.74.69-1.49,1.37-2.24,2.06-.61.55-1.22,1.11-1.84,1.66-.76.68-1.54,1.36-2.32,2.04-.64.55-1.27,1.1-1.91,1.65-.79.67-1.59,1.35-2.39,2.02-.66.55-1.32,1.1-1.98,1.65-.82.67-1.65,1.34-2.48,2-.49.39-.98.79-1.48,1.18,3.97-15.98,10.86-32.2,20.24-47.58-.32,10.69-1.21,21.43-2.69,32.47Zm47.55-100.26c2.82,10.25,5.12,20.73,6.96,31.65-.2.36-.4.71-.61,1.07-.49.84-.98,1.68-1.48,2.53-.42.71-.85,1.43-1.29,2.14-.51.84-1.03,1.68-1.56,2.53-.45.72-.89,1.43-1.35,2.15-.54.85-1.09,1.7-1.65,2.56-.46.71-.93,1.43-1.4,2.15-.56.85-1.14,1.7-1.71,2.55-.35.52-.71,1.04-1.06,1.56-1.01-16.24.74-33.58,5.15-50.88Zm28.73,65.1c-13.29,15.13-31.25,27.57-50.83,30.92.45-.48.87-.95,1.31-1.43.87-.94,1.74-1.88,2.59-2.82.57-.63,1.11-1.25,1.67-1.88.79-.89,1.58-1.78,2.35-2.67.56-.65,1.11-1.29,1.66-1.94.74-.88,1.48-1.75,2.21-2.62.55-.65,1.08-1.31,1.62-1.96.71-.87,1.41-1.74,2.1-2.6.28-.36.58-.71.86-1.07,11.71-3.4,23.11-7.34,34.45-11.91Zm-6.75-227.02c8.23,7.27,16.13,14.99,23.88,23.32.04.45.07.9.11,1.35.07,1,.14,2,.21,3,.05.84.1,1.68.15,2.53.05,1.04.1,2.09.14,3.14.03.84.07,1.68.1,2.52.03,1.08.06,2.16.08,3.25.02.84.04,1.68.05,2.53.01,1.11.01,2.23.01,3.35,0,.62,0,1.24,0,1.86-9.99-13.26-18.34-29.09-24.72-46.87Zm1.25,83.65c5.68,9.07,10.94,18.49,15.88,28.47-.09.41-.18.82-.28,1.23-.22.94-.45,1.89-.68,2.83-.2.81-.4,1.62-.61,2.43-.25.97-.51,1.95-.77,2.93-.21.8-.43,1.59-.65,2.39-.28,1.01-.58,2.04-.87,3.06-.23.78-.45,1.55-.68,2.33-.32,1.06-.65,2.13-.98,3.19-.17.55-.34,1.1-.52,1.65-5.66-15.22-9.01-32.44-9.84-50.52Zm6.81,98.49c.27-.54.51-1.08.77-1.61.58-1.2,1.16-2.39,1.72-3.59.35-.73.68-1.46,1.01-2.2.5-1.1,1.01-2.19,1.49-3.28.34-.77.67-1.53,1.01-2.3.46-1.05.91-2.11,1.35-3.15.33-.77.64-1.55.96-2.32.43-1.04.85-2.08,1.26-3.12.16-.41.34-.82.5-1.23,10.24-6.68,20.01-13.79,29.54-21.5-8.32,18.35-21.88,35.46-39.61,44.3Z"/>
  <path class="cls-1" d="m389.14,150.54c.05-2.47-.59-4.95-1.97-7.13l-38.64-61.05c-1.23-1.95-2.94-3.48-4.9-4.5-.06-.03-.13-.06-.19-.09-1.75-.88-3.7-1.37-5.73-1.37h-163.4c-2.04,0-3.99.49-5.75,1.37-.06.03-.12.05-.18.08-1.97,1.03-3.67,2.55-4.91,4.5l-10.4,16.42c-2.22,3.51-1.18,8.15,2.33,10.36,3.51,2.22,8.15,1.18,10.36-2.33l5.63-8.9,28.76,45.15h-57.35s4.05-6.4,4.05-6.4c2.22-3.51,1.18-8.15-2.33-10.36-3.51-2.22-8.15-1.18-10.36,2.33l-9.35,14.77c-1.38,2.18-2.02,4.66-1.97,7.13,0,.02,0,.03,0,.05,0,.03,0,.06,0,.09,0,.16.01.31.02.46,0,.12.02.23.03.35.23,2.39,1.11,4.72,2.66,6.69l120.34,153.4c1.97,2.51,4.75,4.14,7.83,4.69.09.02.18.03.27.05.65.1,1.31.17,1.98.17s1.32-.07,1.97-.17c.1-.02.19-.03.29-.05,3.08-.55,5.85-2.17,7.82-4.69l120.34-153.4c1.55-1.97,2.43-4.3,2.66-6.69.01-.12.02-.23.03-.35.01-.15.02-.31.02-.46,0-.03,0-.06,0-.09,0-.02,0-.03,0-.05Zm-62.21-59.12l-28.79,45.18-28.78-45.18h57.57Zm-42.48,51.65h-57.57l28.78-45.18,28.78,45.18Zm-99.39-51.65h56.92l-28.46,44.67-28.46-44.67Zm-40.46,66.68h63.44s31.57,121.11,31.57,121.11l-95.01-121.11Zm127.66,121.25l15.39-59.48c1.04-4.02-1.37-8.11-5.39-9.15-4.02-1.04-8.11,1.38-9.15,5.39l-17.14,66.27-32.4-124.28h64.55l-6.17,23.85c-1.04,4.02,1.37,8.11,5.39,9.15.63.16,1.26.24,1.89.24,3.34,0,6.39-2.25,7.27-5.63l7.14-27.61h63.75s-95.12,121.25-95.12,121.25Zm39.57-136.27l28.77-45.15,28.58,45.16h-57.35Z"/>
</svg>