<svg version="1.1" id="Capa_1" xmlns="http://www.w3.org/2000/svg" xmlns:xlink="http://www.w3.org/1999/xlink" x="0px" y="0px" viewBox="0 0 512.002 512.002" style="enable-background:new 0 0 512.002 512.002;" xml:space="preserve">
<g>
	
		<path style="fill-rule:evenodd;clip-rule:evenodd;fill:none;stroke:#000000;stroke-width:20;stroke-linecap:round;stroke-linejoin:round;stroke-miterlimit:2.6131;" d="&#10;&#9;&#9;M273.002,295.962c1.285-0.395,2.555-0.84,3.807-1.337c15.769-6.261,27.519-20.312,30.896-36.955&#10;&#9;&#9;c2.843-14.213,15.334-24.037,29.297-24.022c50-0.11,93.184-6.769,132.417,32.464c20.104,20.104,32.582,47.861,32.582,78.416&#10;&#9;&#9;c0,41.717-23.94,80.134-61.07,98.999c-14.756,7.443-32.753,1.514-40.195-13.242c-7.443-14.756-1.514-32.753,13.242-40.195&#10;&#9;&#9;c31.082-15.791,37.49-57.082,13.018-81.555c-18.97-18.97-44.043-15.034-68.482-15.123c-5.342,11.727-12.733,22.501-21.783,31.678&#10;&#9;&#9;c-11.047,11.2-23.996,19.565-37.892,25.082c-3.664,1.455-7.389,2.708-11.155,3.759"/>
	
		<path style="fill-rule:evenodd;clip-rule:evenodd;fill:none;stroke:#000000;stroke-width:20;stroke-linecap:round;stroke-linejoin:round;stroke-miterlimit:2.6131;" d="&#10;&#9;&#9;M389.347,70c-16.563,0-29.99-13.432-29.99-30s13.427-30,29.99-30c16.575,0,30.01,13.415,30.01,30S405.922,70,389.347,70z"/>
	
		<path style="fill-rule:evenodd;clip-rule:evenodd;fill:none;stroke:#000000;stroke-width:20;stroke-linecap:round;stroke-linejoin:round;stroke-miterlimit:2.6131;" d="&#10;&#9;&#9;M438.069,96.674c10.485-12.75,29.321-14.586,42.07-4.102c12.75,10.485,14.586,29.321,4.102,42.07&#10;&#9;&#9;c-12.239,14.824-27.384,26.489-44.201,34.413c-16.99,8.005-35.622,12.301-54.65,12.301c-32.263,0-62.025-12.008-84.75-32.026&#10;&#9;&#9;c-22.653-19.956-38.283-47.979-42.364-80.083c-2.071-16.374,9.524-31.327,25.898-33.398s31.327,9.524,33.398,25.898&#10;&#9;&#9;c2.157,16.971,10.526,31.879,22.677,42.583c20.322,17.902,49.788,22.106,74.243,10.584&#10;&#9;&#9;C423.563,110.642,431.644,104.457,438.069,96.674z"/>
	
		<path style="fill-rule:evenodd;clip-rule:evenodd;fill:none;stroke:#000000;stroke-width:20;stroke-linecap:round;stroke-linejoin:round;stroke-miterlimit:2.6131;" d="&#10;&#9;&#9;M212.411,313.207c-2.606-3.686-5.52-7.142-8.706-10.328c-21.251-21.25-40.767-22.898-68.376-22.898&#10;&#9;&#9;c-16.541,0-30.074-13.533-30.074-30.074c0-16.541,13.533-30.074,30.074-30.074c24.517,0,49.007-5.787,49.007-35.959&#10;&#9;&#9;c0-29.106-33.081-45.931-56.454-29.535c-13.527,9.514-32.205,6.261-41.719-7.265c-9.514-13.527-6.261-32.205,7.265-41.719&#10;&#9;&#9;c38.083-26.717,89.755-22.262,122.743,10.725c34.041,34.041,37.511,88.514,8.022,126.493&#10;&#9;&#9;c38.858,25.596,62.559,68.866,62.559,115.634c0,79.459-57.654,143.794-138.375,143.794C72.209,502.002,10,439.794,10,363.627&#10;&#9;&#9;c0-16.568,13.432-30,30-30s30,13.432,30,30c0,43.046,35.33,78.375,78.376,78.375c30.554,0,54.17-15.487,67.17-38.794"/>
	
		<line style="fill-rule:evenodd;clip-rule:evenodd;fill:none;stroke:#000000;stroke-width:20;stroke-linecap:round;stroke-linejoin:round;stroke-miterlimit:22.9256;" x1="226.743" y1="358.207" x2="226.751" y2="358.207"/>
</g>
<g>
</g>
<g>
</g>
<g>
</g>
<g>
</g>
<g>
</g>
<g>
</g>
<g>
</g>
<g>
</g>
<g>
</g>
<g>
</g>
<g>
</g>
<g>
</g>
<g>
</g>
<g>
</g>
<g>
</g>
</svg>