<?xml version="1.0" encoding="utf-8"?>
<!-- Generator: Adobe Illustrator 27.6.1, SVG Export Plug-In . SVG Version: 6.00 Build 0)  -->
<svg version="1.1" id="svg4533" xmlns:svg="http://www.w3.org/2000/svg"
	 xmlns="http://www.w3.org/2000/svg" xmlns:xlink="http://www.w3.org/1999/xlink" x="0px" y="0px" viewBox="0 0 682.7 682.7"
	 style="enable-background:new 0 0 682.7 682.7;" xml:space="preserve">
<style type="text/css">
	.st0{clip-path:url(#SVGID_00000175313054796350900800000006904537635927147419_);}
	.st1{fill:none;stroke:#79992F;stroke-width:20;stroke-linecap:round;stroke-linejoin:round;stroke-miterlimit:13.3333;}
	.st2{fill:none;stroke:#000000;stroke-width:20;stroke-linecap:round;stroke-linejoin:round;stroke-miterlimit:13.3333;}
</style>
<g id="g4539" transform="matrix(1.3333333,0,0,-1.3333333,0,682.66667)">
	<g id="g4541">
		<g>
			<defs>
				<rect id="SVGID_1_" x="-85.3" y="-85.3" width="682.7" height="682.7"/>
			</defs>
			<clipPath id="SVGID_00000146491526752818574190000016876474839664951706_">
				<use xlink:href="#SVGID_1_"  style="overflow:visible;"/>
			</clipPath>
			<g id="g4543" style="clip-path:url(#SVGID_00000146491526752818574190000016876474839664951706_);">
				<g id="g4549" transform="translate(242.0459,373.7139)">
					<path id="path4551" class="st1" d="M0,0c8.5,23.8,26.7,52.1,65.6,72.6c39.4,20.8,62.8,39.5,76.3,53.3
						c8.9,9.1,24.4,4.9,27.5-7.4c8.6-33.9,15.3-88.6-16-126.1"/>
				</g>
				<g id="g4553" transform="translate(289.7695,370.667)">
					<path id="path4555" class="st1" d="M0,0c1,0.5,1.9,1,2.9,1.5C45.1,23,73.1,39.7,93,79.8"/>
				</g>
				<g id="g4557" transform="translate(321.5088,387.6309)">
					<path id="path4559" class="st1" d="M0,0c0,0,9,16.3,10.1,33.6"/>
				</g>
				<g id="g4561" transform="translate(353.6309,410.3779)">
					<path id="path4563" class="st1" d="M0,0c0,0,24.6-0.7,34.9,6.3"/>
				</g>
				<g id="g4565" transform="translate(236.1802,7.5)">
					<path id="path4567" class="st2" d="M0,0c20.9,0,71.7,14.3,121.1,45.6"/>
				</g>
				<g id="g4569" transform="translate(386.6504,74.0439)">
					<path id="path4571" class="st2" d="M0,0c47.4,38.1,86.9,93.7,86.9,169.1c0,47.8-27.4,132.6-139.9,132.6
						c-24.8,0-48.8-4.9-70.8-13.9"/>
				</g>
				<g id="g4573" transform="translate(323.3027,299.5508)">
					<path id="path4575" class="st2" d="M0,0c-26.3,49.7-76.4,82-139,82c-38.4,0-67.5-9.8-89.3-24.7"/>
				</g>
				<g id="g4577" transform="translate(68.3286,332.1816)">
					<path id="path4579" class="st2" d="M0,0c-21.7-26.9-29.9-59.4-29.9-83c0-168.5,158.4-226.1,192.5-240.7c4.7-2,10.2-1,13.8,2.6
						c89.2,87.7,111.9,182.9,91.9,254.8"/>
				</g>
			</g>
		</g>
	</g>
</g>
</svg>
