<?xml version="1.0" encoding="UTF-8"?>
<svg id="svg4524" xmlns="http://www.w3.org/2000/svg" xmlns:xlink="http://www.w3.org/1999/xlink" viewBox="0 0 682.67 682.67">
  <defs>
    <style>
      .cls-1, .cls-2, .cls-3, .cls-4 {
        fill: none;
      }

      .cls-2 {
        stroke: #000;
      }

      .cls-2, .cls-3 {
        stroke-linecap: round;
        stroke-linejoin: round;
        stroke-width: 20px;
      }

      .cls-3 {
        stroke: #79992f;
      }

      .cls-4 {
        clip-path: url(#clippath);
      }
    </style>
    <clipPath id="clippath">
      <rect class="cls-1" x="0" width="682.67" height="682.67"/>
    </clipPath>
  </defs>
  <g id="g4530">
    <g id="g4532">
      <g class="cls-4">
        <g id="g4534">
          <g id="g4540">
            <path id="path4542" class="cls-2" d="m460.5,353.91c26.69-77.52,111.57-123.03,212.17-123.03v441.78h-60.24c-62.59,0-116.82-54.14-143.33-133.14"/>
          </g>
          <g id="g4544">
            <path id="path4546" class="cls-2" d="m230.89,348.31c30.25-18.19,68.66-29.07,110.45-29.07,52.78,0,100.16,17.36,132.54,44.87"/>
          </g>
          <g id="g4548">
            <path id="path4550" class="cls-2" d="m562.23,562.22c0-73.2-59.34-132.53-132.53-132.53h-44.18"/>
          </g>
          <g id="g4552">
            <path id="path4554" class="cls-2" d="m163.91,542.52c36.3,15.03,81.01,27.48,133.25,30.74,107.24,6.7,186.71-26.08,238.42-90.76"/>
          </g>
          <g id="g4556">
            <path id="path4558" class="cls-2" d="m319.25,148.32l22.09,27.35,88.36-66.27L330.29,10s-74.21,13.12-110.44,88.35c0,0-148.58,119.59-209.1,347.71-3.72,14.03,6.82,27.8,21.34,27.8h22.09s25.08,25.39,71.77,50.61"/>
          </g>
          <g id="g4560">
            <path id="path4562" class="cls-2" d="m341.34,120.44s-11.04,41.42-77.31,44.18l-20.4,176.71"/>
          </g>
          <g id="g4564">
            <path id="path4566" class="cls-2" d="m76.27,473.87h-22.09"/>
          </g>
          <g id="g4568">
            <path id="path4570" class="cls-3" d="m155.29,164.97l98.54,88.01,10.2-88.36-44.18-66.27s-27.96,22.52-64.56,66.61Z"/>
          </g>
        </g>
      </g>
    </g>
  </g>
</svg>