<?xml version="1.0" encoding="utf-8"?>
<!-- Generator: Adobe Illustrator 27.6.1, SVG Export Plug-In . SVG Version: 6.00 Build 0)  -->
<svg version="1.1" id="Layer_1" xmlns:xodm="http://www.corel.com/coreldraw/odm/2003"
	 xmlns="http://www.w3.org/2000/svg" xmlns:xlink="http://www.w3.org/1999/xlink" x="0px" y="0px" viewBox="0 0 480.6 480.6"
	 style="enable-background:new 0 0 480.6 480.6;" xml:space="preserve">
<style type="text/css">
	
		.st0{opacity:0.65;fill-rule:evenodd;clip-rule:evenodd;fill:url(#Hex_x0020_figure_00000013912438099118812390000004817704853808641447_);stroke:#2B2B29;stroke-width:0.48;stroke-miterlimit:10;}
	.st1{fill-rule:evenodd;clip-rule:evenodd;fill:#FFFFFF;}
</style>
<g>
	
		<linearGradient id="Hex_x0020_figure_00000116230264841001220470000006690567739430784155_" gradientUnits="userSpaceOnUse" x1="3339.6111" y1="7680.5952" x2="8106.542" y2="7680.5952" gradientTransform="matrix(0.0705 0 0 0.0705 -163.5945 -304.2214)">
		<stop  offset="0" style="stop-color:#4B4B4B"/>
		<stop  offset="0.1294" style="stop-color:#313133"/>
		<stop  offset="0.2588" style="stop-color:#595959"/>
		<stop  offset="0.3882" style="stop-color:#2F2F31"/>
		<stop  offset="0.5216" style="stop-color:#474747"/>
		<stop  offset="0.6118" style="stop-color:#616161"/>
		<stop  offset="0.7804" style="stop-color:#424244"/>
		<stop  offset="0.8902" style="stop-color:#39383D"/>
		<stop  offset="1" style="stop-color:#454547"/>
	</linearGradient>
	
		<path id="Hex_x0020_figure" style="opacity:0.65;fill-rule:evenodd;clip-rule:evenodd;fill:url(#Hex_x0020_figure_00000116230264841001220470000006690567739430784155_);stroke:#2B2B29;stroke-width:0.48;stroke-miterlimit:10;" d="
		M239.8,43.2l16,9.2c-3.5,4.1-5.7,9.6-5.7,15.5c0,13,10.2,23.5,22.8,23.5c10.3,0,18.9-7,21.8-16.6l29.2,16.8l11.7,6.8
		c-43.2,26.7-83.3,27.1-132.4,19.6l-3.2,1.7c27.7,15.7,46.5,22.1,78.2,25.4c31.5,3.3,82.7-1.2,95.2-17.9c1.7-2.2,0.4-5.4-0.5-7.3
		l34.9,20.2v97v6c-8.8-20.7-22.3-36.4-29.1-42.2c-9-7.6-24.4-16.5-29.6-18.7s-17.9-6.2-32.8-2.7s-32.8,20.6-36.9,25.2
		c-4.1,4.6-14.9,12.7-24.1,20.1c-9.2,7.3-36.6,2.2-46.7-0.8c-10-3-20.6-13.3-22-21.2s13.8-23.3,16-29.8s-5-24.6-18.7-37.7
		s-29.4-16.8-43-18.7c-8.4-1.2-22.1,0.4-31.4,1.7l46.3-26.7L239.8,43.2L239.8,43.2L239.8,43.2z M407.8,301.9v32.2l-84,48.5l-84,48.5
		l-60-34.6c39.8-6.6,61.5-42.2,68.7-73.2c3.7-16.2-4.7-52.6-4.7-52.6c11.4,0.7,21.2,0.5,31.5-0.2c10.2-0.7,26.1-15,34.8-22
		c8.7-7.1,20.6-13.6,36.4-16c15.7-2.4,30.1,14.2,34.7,24.4c4.7,10.2,7,23.7-6.8,45.8c-13.7,22.1-35.4,27-51.4,25.9
		c-15.9-1.1-29.9-15.3-33-20.8s-2.5-7.3-4.6-7.3s-3.8,3.5-4.6,10.6c-3.3,28.7,26.1,47.1,52,49.8c30.6,3.2,43.7-11.6,52.4-19.2
		C393.2,334.7,403.6,314.6,407.8,301.9L407.8,301.9L407.8,301.9z M71.8,320.2v-83v-53.9l8.8,15.2c9-22.9,29.4-44.5,55.9-44.5
		c16.5,0,26.3,3.9,28.8,12.5s-5.1,28.3-17.7,38.7c-12.6,10.3-37.8,11.3-39.5,13.9c-1.6,2.4,1.8,9.9,1.8,9.9s7.1,19.9,7.7,22.4
		c0.5,2.4,2.4,6.2,5.7,5.4c12.4-3.1,8.4-14.9,36.1-15.7c9.2-0.3,25.6,6.4,34.5,15.3c8.9,9,17.2,40.8,16.5,54.4s-9.8,40-32,42.3
		c-22.3,2.4-41.1-12.8-50.7-19C107.4,321.1,94,317.1,71.8,320.2L71.8,320.2L71.8,320.2z"/>
	<path class="st1" d="M102.9,175.9h32.4V190l-9.6-0.2l-0.1,61.9l-14.4-0.8v-60.8L103,190L102.9,175.9L102.9,175.9z M138.1,275.4
		v16.3c0,0.6,0.1,1.6,1.5,1.6s1.5-0.7,1.5-1.6v-16.5c0-0.3-0.2-1.3-1.5-1.3C138.3,274,138.1,275.2,138.1,275.4L138.1,275.4
		L138.1,275.4z M132,273.7c0-2.9,2.9-5.3,5.9-5.3h3.1c3.4,0,6,2.3,6,5.3v19.7c0,3.3-2.7,6-6,6h-3c-3.2,0-5.9-2.7-5.9-6L132,273.7
		L132,273.7z M159.5,268.4h12.4v6.2h-6l0.1,4.8l5.9,0.1v5.9h-6v14h-6.4V268.4L159.5,268.4L159.5,268.4z M293.7,274.4v3h-6v-1.5
		c0-1.3-0.7-2.2-1.5-2.2c-0.6,0-1.3,0.4-1.3,1.1v1.2c0,2,1.5,3.2,5.2,6.1c2,1.6,3.6,5,3.6,6.8v4.2c0,2.3-2.1,6.5-5.8,6.4l-3-0.1
		c-3.8-0.1-6.1-3-6.1-5.7v-6h6.1v4.6c0,1,0.5,1.4,1.5,1.4s1.3-0.8,1.3-1.3v-2.1c0-3.8-8.9-7.4-9-12.7V275c0-4.7,4.4-6.6,6.1-6.6h3.1
		C289.4,268.4,293.7,271.6,293.7,274.4L293.7,274.4L293.7,274.4z M332.9,268.4h6l3.1,15.3v-15.3h5.9l0.2,30.9l-6-0.2l-3-15.3v15.5
		h-6L332.9,268.4L332.9,268.4z M200.9,268.4H214v6.2h-3.4v24.7h-6.2l-0.2-24.7H201L200.9,268.4L200.9,268.4z M225.5,268.4h6v23.8
		c0,0.8,0.6,1.4,1.4,1.4c0.9,0,1.3-0.6,1.3-1.5v-23.8h6l0.1,25.2c0,4-2.8,5.7-7.4,5.7c-5.3,0-7.5-2.9-7.5-5.7L225.5,268.4
		L225.5,268.4L225.5,268.4z M267.6,274.6v6.7h-6.4v-5.8c0-0.5-0.1-0.9-0.3-1.1c-0.2-0.2-0.5-0.3-1-0.3c-0.4,0-0.7,0.1-0.9,0.3
		c-0.2,0.2-0.3,0.6-0.3,1.1v16.9c0,0.5,0.1,0.8,0.3,1c0.2,0.2,0.5,0.3,1,0.3c0.4,0,0.8-0.1,0.9-0.3c0.2-0.2,0.3-0.5,0.3-1v-6.6h6.4
		v7.7c0,3.3-3.1,6-6.4,6h-2.6c-3.6,0-6.6-3.1-6.6-5.7v-19.1c0-3.5,3-6.2,6.6-6.2h2.6C263.8,268.4,267.6,270.2,267.6,274.6
		L267.6,274.6L267.6,274.6z M82.2,183H97v57.4H82.2V183z M60.7,192.9h14.8v38.4H60.7C60.7,231.3,60.7,192.9,60.7,192.9z M38.9,202.8
		h14.8v19.1H38.9V202.8z M398.3,183.7h-14.8v57.4h14.8V183.7z M419.9,193.6h-14.8V232h14.8V193.6z M441.7,203.5h-14.8v19.1h14.8
		V203.5z M311.5,275.6v16.3c0,0.6,0.1,1.6,1.5,1.6s1.5-0.7,1.5-1.6v-16.5c0-0.3-0.2-1.3-1.5-1.3
		C311.8,274.1,311.5,275.4,311.5,275.6L311.5,275.6L311.5,275.6z M305.5,273.8c0-2.9,2.9-5.3,5.9-5.3h3.1c3.4,0,6,2.3,6,5.3v19.7
		c0,3.3-2.7,6-6,6h-3.1c-3.2,0-5.9-2.7-5.9-6V273.8L305.5,273.8L305.5,273.8z M139,175.9h15v26.9h6.7v-26.9h14.7v74.4h-14.7v-33.9
		H154v33.9h-15C139,250.3,139,175.9,139,175.9z M182.2,175.9h30V190l-14.9-0.7V205l15.4-0.2l-0.4,13.8h-14.9V236h14.9v14.3h-30
		v-74.4H182.2L182.2,175.9z M265.8,175.9c5.1,0,8.3,7.2,8.3,14.1v11.3l-14.8,0.2v-8.3c0-2.7-1.7-3.2-3.5-3.2s-4.1,0.3-4.1,2.6v39.2
		c0,5.1,1.9,5.1,4.1,5.1s3.5-0.4,3.5-5.4v-11.3h-3.8l0.3-13.3l18.3,0.1v43.3H267l-1.4-6.4c-1.7,1.8-3.3,6.4-6.3,6.4
		c-2.9,0-3.5,0-8.3,0c-7.6,0-13.7-2.4-13.7-14.3v-45.9c0-6.6,7.9-14.1,14.4-14.1 M276.5,175.9h15l4.2,25.7l4.1-25.7h14.5l-11.8,50
		l-0.1,24.4h-14v-24.8L276.5,175.9L276.5,175.9L276.5,175.9z M318.4,175.9h21.8l6.1,41.7h0.8l6.1-41.6l22.6-0.1v74.4h-13.3
		l-0.6-52.9l-8.2,52.9h-13.6L331,197l0.4,53.3h-13.1L318.4,175.9L318.4,175.9L318.4,175.9z"/>
</g>
</svg>
