<?xml version="1.0" encoding="UTF-8"?>
<svg id="Layer_1" data-name="Layer 1" xmlns="http://www.w3.org/2000/svg" viewBox="0 0 339 391.36">
  <defs>
    <style>
      .cls-1 {
        fill: #79992f;
        fill-rule: evenodd;
        stroke: #231f20;
        stroke-miterlimit: 10;
        stroke-width: 3px;
      }
    </style>
  </defs>
  <path id="Hex_figure" class="cls-1" d="m169.5,1.73l16,9.2c-3.5,4.1-5.7,9.6-5.7,15.5,0,13,10.2,23.5,22.8,23.5,10.3,0,18.9-7,21.8-16.6l29.2,16.8,11.7,6.8c-43.2,26.7-83.3,27.1-132.4,19.6l-3.2,1.7c27.7,15.7,46.5,22.1,78.2,25.4,31.5,3.3,82.7-1.2,95.2-17.9,1.7-2.2.4-5.4-.5-7.3l34.9,20.2v103c-8.8-20.7-22.3-36.4-29.1-42.2-9-7.6-24.4-16.5-29.6-18.7s-17.9-6.2-32.8-2.7-32.8,20.6-36.9,25.2c-4.1,4.6-14.9,12.7-24.1,20.1-9.2,7.3-36.6,2.2-46.7-.8-10-3-20.6-13.3-22-21.2s13.8-23.3,16-29.8-5-24.6-18.7-37.7-29.4-16.8-43-18.7c-8.4-1.2-22.1.4-31.4,1.7l46.3-26.7L169.5,1.73h0Zm168,258.7v32.2l-84,48.5-84,48.5-60-34.6c39.8-6.6,61.5-42.2,68.7-73.2,3.7-16.2-4.7-52.6-4.7-52.6,11.4.7,21.2.5,31.5-.2,10.2-.7,26.1-15,34.8-22,8.7-7.1,20.6-13.6,36.4-16,15.7-2.4,30.1,14.2,34.7,24.4,4.7,10.2,7,23.7-6.8,45.8-13.7,22.1-35.4,27-51.4,25.9-15.9-1.1-29.9-15.3-33-20.8s-2.5-7.3-4.6-7.3-3.8,3.5-4.6,10.6c-3.3,28.7,26.1,47.1,52,49.8,30.6,3.2,43.7-11.6,52.4-19.2,8-7,18.4-27.1,22.6-39.8h0ZM1.5,278.73v-136.9l8.8,15.2c9-22.9,29.4-44.5,55.9-44.5,16.5,0,26.3,3.9,28.8,12.5s-5.1,28.3-17.7,38.7c-12.6,10.3-37.8,11.3-39.5,13.9-1.6,2.4,1.8,9.9,1.8,9.9,0,0,7.1,19.9,7.7,22.4.5,2.4,2.4,6.2,5.7,5.4,12.4-3.1,8.4-14.9,36.1-15.7,9.2-.3,25.6,6.4,34.5,15.3,8.9,9,17.2,40.8,16.5,54.4s-9.8,40-32,42.3c-22.3,2.4-41.1-12.8-50.7-19-20.3-13-33.7-17-55.9-13.9h0Z"/>
</svg>