<?xml version="1.0" encoding="utf-8"?>
<!-- Generator: Adobe Illustrator 27.6.1, SVG Export Plug-In . SVG Version: 6.00 Build 0)  -->
<svg version="1.1" id="Layer_1" xmlns="http://www.w3.org/2000/svg" xmlns:xlink="http://www.w3.org/1999/xlink" x="0px" y="0px"
	 viewBox="0 0 595.28 841.89" style="enable-background:new 0 0 595.28 841.89;" xml:space="preserve">
<style type="text/css">
	.st0{fill:#79992F;}
	.st1{fill:#79992F;}
</style>
<g>
	<g>
		<g>
			<path class="st0" d="M308.24,444.9c2.68-3.61,0.84-7.23,0.91-7.21c-0.03,0.07-3.99,2.03-6.89,4.83
				c-2.92,2.89-3.37,6.62-3.29,6.67c-0.01-0.02,1.58-0.07,3.58-0.67C304.54,447.91,306.88,446.68,308.24,444.9z"/>
			<path class="st0" d="M312.54,455.28c2.56-0.54,4.36-1.41,4.35-1.4c0.04-0.07-2.09-3.12-6.99-4.01c-2.44-0.47-5.14-0.52-7.26-0.6
				c-2.12-0.08-3.68-0.11-3.68-0.09c0.06-0.08,0.13,4.05,5.19,5.89C306.7,455.97,310,455.84,312.54,455.28z"/>
		</g>
		<g>
			<path class="st0" d="M319.43,438.68c1.07-4.08-1.73-6.6-1.66-6.61c-0.01,0.06-2.91,3.26-4.4,6.78c-1.48,3.58-0.41,6.92-0.34,6.93
				C313.02,445.9,318.38,442.89,319.43,438.68z"/>
			<path class="st0" d="M319.63,448.9c2.48-0.16,5.2-1.43,7.17-2.77c1.97-1.33,3.21-2.66,3.21-2.65c0-0.07-2.88-2.04-7.38-1.09
				c-4.44,1-9.54,3.44-9.61,3.4C313.04,445.71,314.68,449.16,319.63,448.9z"/>
		</g>
		<g>
			<path class="st0" d="M325.68,435.18c0.86-1.58,1.61-3.74,1.48-5.69c-0.34-3.92-3.51-5.29-3.47-5.31
				c0.02,0.05-1.62,3.86-1.78,7.46c-0.14,3.65,1.94,6.15,2,6.14C323.88,437.77,324.81,436.76,325.68,435.18z"/>
			<path class="st0" d="M337.87,430.44c-0.01-0.05-3.14-0.94-6.76,1.27c-3.57,2.22-7.15,6.07-7.21,6.06
				c-0.01-0.07,2.57,2.32,6.73,0.51C334.9,436.47,337.97,430.43,337.87,430.44z"/>
		</g>
		<g>
			<path class="st0" d="M327.22,422.52c0.94,3.27,3.51,4.81,3.55,4.78c0.04,0.06,1.87-4.8,0.44-8.22c-1.38-3.36-4.55-3.72-4.52-3.75
				C326.75,415.38,326.31,419.29,327.22,422.52z"/>
			<path class="st0" d="M340.9,416.97c-0.03-0.04-3.02,0.01-5.58,2.95c-2.51,2.93-4.48,7.37-4.54,7.38
				c-0.03-0.05,2.94,1.23,6.02-1.53C339.96,422.98,340.99,416.95,340.9,416.97z"/>
		</g>
		<g>
			<path class="st0" d="M333.79,416.15c0.08,0.04,0.34-4.68-1.75-7.35c-2.05-2.63-4.91-2.19-4.9-2.23c0.04,0.02,0.62,3.66,2.27,6.31
				C331.08,415.56,333.77,416.18,333.79,416.15z"/>
			<path class="st0" d="M340.05,404.58c-0.02-0.03-2.67,0.73-4.2,3.94c-1.49,3.19-1.98,7.61-2.06,7.63
				c-0.02-0.03,2.89,0.26,4.86-2.92C340.68,410.01,340.11,404.54,340.05,404.58z"/>
		</g>
		<g>
			<path class="st0" d="M333.6,405.59c0.04,0.02-0.82-4.17-3.27-6.04c-2.41-1.85-4.83-0.83-4.82-0.86c0.05,0,1.4,3.12,3.46,5.07
				C331.08,405.72,333.58,405.61,333.6,405.59z"/>
			<path class="st0" d="M337.15,401.88c1.02-3.28-0.68-7.9-0.74-7.84c-0.02-0.02-2.19,1.23-2.8,4.39c-0.59,3.13,0.01,7.13-0.01,7.16
				C333.56,405.57,336.18,405.12,337.15,401.88z"/>
		</g>
		<path class="st0" d="M330.95,396.33c0.01,0.04,0.44-3.59-1.76-6.94c-2.21-3.35-5.73-4.37-5.68-4.35c0.01,0.04,0.86,3.32,2.78,6.27
			C328.23,394.24,330.93,396.31,330.95,396.33z"/>
	</g>
	<path class="st0" d="M322.05,410.27c0-13.28-10.77-24.05-24.05-24.05s-24.04,10.77-24.04,24.05c0,13.28,10.76,24.05,24.04,24.05
		C311.28,434.32,322.05,423.55,322.05,410.27z"/>
	<g>
		<g>
			<path class="st0" d="M291.84,455.08c5.06-1.85,5.13-5.97,5.19-5.89c0-0.02-1.56,0.01-3.68,0.09c-2.13,0.08-4.82,0.13-7.26,0.6
				c-4.9,0.88-7.02,3.94-6.99,4.01c0-0.01,1.8,0.86,4.35,1.4C286,455.84,289.3,455.97,291.84,455.08z"/>
			<path class="st0" d="M293.45,448.51c2,0.6,3.59,0.66,3.58,0.67c0.07-0.05-0.37-3.77-3.3-6.67c-2.89-2.81-6.86-4.77-6.89-4.83
				c0.07-0.02-1.77,3.6,0.91,7.21C289.12,446.68,291.46,447.91,293.45,448.51z"/>
		</g>
		<g>
			<path class="st0" d="M276.36,448.89c4.96,0.27,6.59-3.19,6.61-3.11c-0.06,0.04-5.17-2.4-9.61-3.4c-4.51-0.94-7.39,1.02-7.38,1.09
				c0-0.01,1.24,1.32,3.21,2.65C271.16,447.46,273.89,448.73,276.36,448.89z"/>
			<path class="st0" d="M282.98,445.78c0.07-0.01,1.14-3.35-0.34-6.93c-1.49-3.51-4.39-6.72-4.4-6.78c0.06,0.01-2.73,2.53-1.66,6.61
				C277.62,442.89,282.98,445.89,282.98,445.78z"/>
		</g>
		<g>
			<path class="st0" d="M272.11,437.77c-0.06,0.01-3.64-3.84-7.21-6.06c-3.62-2.21-6.76-1.32-6.76-1.27
				c-0.1-0.01,2.96,6.03,7.24,7.84C269.53,440.1,272.12,437.71,272.11,437.77z"/>
			<path class="st0" d="M274.11,431.63c-0.17-3.6-1.8-7.41-1.78-7.46c0.04,0.03-3.14,1.4-3.47,5.31c-0.13,1.95,0.61,4.11,1.48,5.69
				c0.87,1.59,1.8,2.59,1.78,2.6C272.17,437.78,274.24,435.28,274.11,431.63z"/>
		</g>
		<g>
			<path class="st0" d="M265.23,427.31c-0.06-0.01-2.03-4.45-4.54-7.38c-2.57-2.94-5.56-2.99-5.58-2.95c-0.1-0.03,0.94,6,4.1,8.8
				C262.29,428.54,265.25,427.26,265.23,427.31z"/>
			<path class="st0" d="M264.79,419.09c-1.43,3.42,0.39,8.28,0.44,8.22c0.05,0.02,2.62-1.51,3.55-4.78
				c0.91-3.24,0.47-7.14,0.52-7.19C269.34,415.37,266.16,415.73,264.79,419.09z"/>
		</g>
		<g>
			<path class="st0" d="M262.21,416.15c-0.07-0.02-0.57-4.44-2.06-7.63c-1.53-3.21-4.19-3.97-4.2-3.94
				c-0.06-0.04-0.62,5.43,1.4,8.65C259.32,416.42,262.23,416.13,262.21,416.15z"/>
			<path class="st0" d="M266.59,412.9c1.65-2.65,2.23-6.29,2.27-6.31c0.01,0.03-2.85-0.4-4.9,2.23c-2.1,2.66-1.84,7.39-1.76,7.35
				C262.23,416.18,264.92,415.56,266.59,412.9z"/>
		</g>
		<g>
			<path class="st0" d="M262.4,405.59c-0.02-0.03,0.57-4.03-0.01-7.16c-0.61-3.16-2.78-4.41-2.8-4.39
				c-0.06-0.06-1.76,4.57-0.74,7.84C259.82,405.12,262.44,405.57,262.4,405.59z"/>
			<path class="st0" d="M270.49,398.69c0,0.03-2.42-0.99-4.82,0.86c-2.45,1.86-3.3,6.05-3.27,6.04c0.02,0.03,2.52,0.13,4.62-1.82
				C269.09,401.81,270.44,398.69,270.49,398.69z"/>
		</g>
		<path class="st0" d="M269.72,391.31c1.92-2.95,2.77-6.23,2.78-6.27c0.05-0.02-3.48,1.01-5.68,4.35c-2.2,3.35-1.77,6.98-1.76,6.94
			C265.07,396.31,267.77,394.24,269.72,391.31z"/>
	</g>
	<g>
		<path class="st1" d="M297.57,419.55c-2.23,0-3.38-1.52-3.44-4.58l-5.01,0.41c0.42,5.52,3.42,8.28,8.99,8.28
			c2.55,0,4.66-0.69,6.32-2.07c1.66-1.38,2.49-3.3,2.49-5.76c0-3.09-1.61-5.16-4.83-6.21c2.59-1.18,3.89-3.15,3.89-5.91
			c0-2.12-0.71-3.79-2.12-5.01c-1.42-1.22-3.4-1.83-5.96-1.83c-2.27,0-4.14,0.62-5.62,1.87c-1.48,1.25-2.27,3.05-2.37,5.4l4.86,0.38
			c0-2.29,0.92-3.44,2.77-3.44c0.83,0,1.5,0.27,2.01,0.81c0.51,0.54,0.77,1.24,0.77,2.09c0,0.96-0.34,1.77-1.01,2.44
			c-0.67,0.67-1.75,1-3.23,1v4.38c0.47-0.03,0.86-0.04,1.16-0.04c1.25,0,2.18,0.37,2.81,1.11c0.62,0.74,0.93,1.67,0.93,2.78
			c0,1.14-0.32,2.07-0.95,2.81C299.4,419.19,298.58,419.55,297.57,419.55z"/>
	</g>
</g>
</svg>
